<?xml version="1.0" encoding="UTF-8" standalone="no"?>
<!DOCTYPE svg PUBLIC "-//W3C//DTD SVG 1.1//EN"
 "http://www.w3.org/Graphics/SVG/1.1/DTD/svg11.dtd">
<!-- Generated by graphviz version 2.40.1 (20161225.0304)
 -->
<!-- Title: dependencies Pages: 1 -->
<svg width="776pt" height="211pt"
 viewBox="0.00 0.00 776.00 211.00" xmlns="http://www.w3.org/2000/svg" xmlns:xlink="http://www.w3.org/1999/xlink">
<g id="graph0" class="graph" transform="scale(1 1) rotate(0) translate(4 207)">
<title>dependencies</title>
<polygon fill="#ffffff" stroke="transparent" points="-4,4 -4,-207 772,-207 772,4 -4,4"/>
<text text-anchor="start" x="363.0091" y="-42.4" font-family="sans-serif" font-weight="bold" font-size="14.00" fill="#000000">Legend</text>
<polygon fill="#ffffb3" stroke="transparent" points="150,-10 150,-30 170,-30 170,-10 150,-10"/>
<text text-anchor="start" x="173.629" y="-15.4" font-family="sans-serif" font-size="14.00" fill="#000000"> &#160;Declarations</text>
<polygon fill="#8dd3c7" stroke="transparent" points="263,-10 263,-30 283,-30 283,-10 263,-10"/>
<text text-anchor="start" x="286.7251" y="-15.4" font-family="sans-serif" font-size="14.00" fill="#000000"> &#160;Module</text>
<polygon fill="#80b1d3" stroke="transparent" points="349,-10 349,-30 369,-30 369,-10 349,-10"/>
<text text-anchor="start" x="372.7812" y="-15.4" font-family="sans-serif" font-size="14.00" fill="#000000"> &#160;Bootstrap</text>
<polygon fill="#fdb462" stroke="transparent" points="446,-10 446,-30 466,-30 466,-10 446,-10"/>
<text text-anchor="start" x="469.6732" y="-15.4" font-family="sans-serif" font-size="14.00" fill="#000000"> &#160;Providers</text>
<polygon fill="#fb8072" stroke="transparent" points="542,-10 542,-30 562,-30 562,-10 542,-10"/>
<text text-anchor="start" x="565.7258" y="-15.4" font-family="sans-serif" font-size="14.00" fill="#000000"> &#160;Exports</text>
<g id="clust1" class="cluster">
<title>cluster_AdminModule</title>
<polygon fill="none" stroke="#000000" stroke-dasharray="1,5" points="8,-70 8,-195 760,-195 760,-70 8,-70"/>
</g>
<g id="clust2" class="cluster">
<title>cluster_AdminModule_declarations</title>
<polygon fill="none" stroke="#000000" points="184,-78 184,-130 752,-130 752,-78 184,-78"/>
</g>
<g id="clust7" class="cluster">
<title>cluster_AdminModule_imports</title>
<polygon fill="none" stroke="#000000" points="16,-78 16,-130 176,-130 176,-78 16,-78"/>
</g>
<!-- AdminComponent -->
<g id="node1" class="node">
<title>AdminComponent</title>
<polygon fill="#ffffb3" stroke="#000000" points="744.2204,-122 623.7796,-122 623.7796,-86 744.2204,-86 744.2204,-122"/>
<text text-anchor="middle" x="684" y="-99.8" font-family="Times,serif" font-size="14.00" fill="#000000">AdminComponent</text>
</g>
<!-- AdminModule -->
<g id="node5" class="node">
<title>AdminModule</title>
<polygon fill="#8dd3c7" stroke="#000000" points="431.4386,-187 428.4386,-191 407.4386,-191 404.4386,-187 332.5614,-187 332.5614,-151 431.4386,-151 431.4386,-187"/>
<text text-anchor="middle" x="382" y="-164.8" font-family="Times,serif" font-size="14.00" fill="#000000">AdminModule</text>
</g>
<!-- AdminComponent&#45;&gt;AdminModule -->
<g id="edge1" class="edge">
<title>AdminComponent&#45;&gt;AdminModule</title>
<path fill="none" stroke="#000000" d="M684,-122.2843C684,-143.3211 684,-175 684,-175 684,-175 441.531,-175 441.531,-175"/>
<polygon fill="#000000" stroke="#000000" points="441.531,-171.5001 431.531,-175 441.531,-178.5001 441.531,-171.5001"/>
</g>
<!-- CreateuserComponent -->
<g id="node2" class="node">
<title>CreateuserComponent</title>
<polygon fill="#ffffb3" stroke="#000000" points="605.6839,-122 464.3161,-122 464.3161,-86 605.6839,-86 605.6839,-122"/>
<text text-anchor="middle" x="535" y="-99.8" font-family="Times,serif" font-size="14.00" fill="#000000">CreateuserComponent</text>
</g>
<!-- CreateuserComponent&#45;&gt;AdminModule -->
<g id="edge2" class="edge">
<title>CreateuserComponent&#45;&gt;AdminModule</title>
<path fill="none" stroke="#000000" d="M535,-122.0225C535,-139.3734 535,-163 535,-163 535,-163 441.2523,-163 441.2523,-163"/>
<polygon fill="#000000" stroke="#000000" points="441.2524,-159.5001 431.2523,-163 441.2523,-166.5001 441.2524,-159.5001"/>
</g>
<!-- EdituserComponent -->
<g id="node3" class="node">
<title>EdituserComponent</title>
<polygon fill="#ffffb3" stroke="#000000" points="445.986,-122 318.014,-122 318.014,-86 445.986,-86 445.986,-122"/>
<text text-anchor="middle" x="382" y="-99.8" font-family="Times,serif" font-size="14.00" fill="#000000">EdituserComponent</text>
</g>
<!-- EdituserComponent&#45;&gt;AdminModule -->
<g id="edge3" class="edge">
<title>EdituserComponent&#45;&gt;AdminModule</title>
<path fill="none" stroke="#000000" d="M382,-122.1061C382,-122.1061 382,-140.991 382,-140.991"/>
<polygon fill="#000000" stroke="#000000" points="378.5001,-140.9909 382,-150.991 385.5001,-140.991 378.5001,-140.9909"/>
</g>
<!-- UserComponent -->
<g id="node4" class="node">
<title>UserComponent</title>
<polygon fill="#ffffb3" stroke="#000000" points="299.7591,-122 192.2409,-122 192.2409,-86 299.7591,-86 299.7591,-122"/>
<text text-anchor="middle" x="246" y="-99.8" font-family="Times,serif" font-size="14.00" fill="#000000">UserComponent</text>
</g>
<!-- UserComponent&#45;&gt;AdminModule -->
<g id="edge4" class="edge">
<title>UserComponent&#45;&gt;AdminModule</title>
<path fill="none" stroke="#000000" d="M246,-122.0225C246,-139.3734 246,-163 246,-163 246,-163 322.5162,-163 322.5162,-163"/>
<polygon fill="#000000" stroke="#000000" points="322.5162,-166.5001 332.5162,-163 322.5161,-159.5001 322.5162,-166.5001"/>
</g>
<!-- AdminRoutingModule -->
<g id="node6" class="node">
<title>AdminRoutingModule</title>
<polygon fill="#8dd3c7" stroke="#000000" points="167.5561,-122 164.5561,-126 143.5561,-126 140.5561,-122 24.4439,-122 24.4439,-86 167.5561,-86 167.5561,-122"/>
<text text-anchor="middle" x="96" y="-99.8" font-family="Times,serif" font-size="14.00" fill="#000000">AdminRoutingModule</text>
</g>
<!-- AdminRoutingModule&#45;&gt;AdminModule -->
<g id="edge5" class="edge">
<title>AdminRoutingModule&#45;&gt;AdminModule</title>
<path fill="none" stroke="#000000" d="M96,-122.2843C96,-143.3211 96,-175 96,-175 96,-175 322.5091,-175 322.5091,-175"/>
<polygon fill="#000000" stroke="#000000" points="322.5091,-178.5001 332.5091,-175 322.5091,-171.5001 322.5091,-178.5001"/>
</g>
</g>
</svg>
